<svg width="32" height="32" viewBox="0 0 32 32" xmlns="http://www.w3.org/2000/svg">
  <defs>
    <linearGradient id="faviconGradient" x1="0%" y1="0%" x2="100%" y2="100%">
      <stop offset="0%" style="stop-color:#17a2b8;stop-opacity:1" />
      <stop offset="100%" style="stop-color:#138496;stop-opacity:1" />
    </linearGradient>
  </defs>
  
  <!-- Shield shape -->
  <path d="M4 8 L4 20 Q4 24 8 26 L14 28 Q16 29 16 29 Q16 29 18 28 L24 26 Q28 24 28 20 L28 8 Q28 4 24 4 L8 4 Q4 4 4 8 Z" 
        fill="url(#faviconGradient)" 
        stroke="#0f5f6b" 
        stroke-width="1"/>
  
  <!-- Lock icon -->
  <rect x="12" y="14" width="8" height="6" rx="1" fill="white" opacity="0.9"/>
  <path d="M13 14 L13 12 Q13 10 16 10 Q19 10 19 12 L19 14" 
        stroke="white" 
        stroke-width="1.5" 
        fill="none" 
        opacity="0.9"/>
  
  <!-- Alert dot -->
  <circle cx="24" cy="8" r="2" fill="#ff6b6b"/>
  <circle cx="24" cy="8" r="1" fill="white"/>
</svg>